{"asset":{"version":"2.0","generator":"Blockbench 4.10.0 glTF exporter"},"scenes":[{"nodes":[13],"name":"blockbench_export"}],"scene":0,"nodes":[{"translation":[0,0.375,-0.09375],"name":"cube","mesh":0},{"translation":[0,0.375,0],"name":"cube","mesh":1},{"rotation":[0,0,-5.39719282672549e-17,1],"translation":[0,0.6875,0.09375],"name":"head","children":[0,1]},{"name":"cube","mesh":2},{"translation":[0,0.51875,0.03125],"name":"torso","children":[3]},{"translation":[0,-0.3072916666666667,0],"name":"cube","mesh":3},{"translation":[0.40625,0.5625,0.03125],"name":"arm_l","children":[5]},{"translation":[0,-0.3072916666666667,0],"name":"cube","mesh":4},{"translation":[-0.40625,0.5625,0.03125],"name":"arm_r","children":[7]},{"translation":[0,-0.09375,0],"name":"cube","mesh":5},{"translation":[0.15625,0.25,0.03125],"name":"leg_l","children":[9]},{"translation":[0,-0.09375,0],"name":"cube","mesh":6},{"translation":[-0.15625,0.25,0.03125],"name":"leg_r","children":[11]},{"children":[2,4,6,8,10,12]}],"bufferViews":[{"buffer":0,"byteOffset":0,"byteLength":1152,"target":34962,"byteStride":12},{"buffer":0,"byteOffset":1152,"byteLength":1152,"target":34962,"byteStride":12},{"buffer":0,"byteOffset":2304,"byteLength":768,"target":34962,"byteStride":8},{"buffer":0,"byteOffset":3072,"byteLength":288,"target":34963},{"buffer":0,"byteOffset":3360,"byteLength":288,"target":34962,"byteStride":12},{"buffer":0,"byteOffset":3648,"byteLength":288,"target":34962,"byteStride":12},{"buffer":0,"byteOffset":3936,"byteLength":192,"target":34962,"byteStride":8},{"buffer":0,"byteOffset":4128,"byteLength":60,"target":34963},{"buffer":0,"byteOffset":4188,"byteLength":12,"target":34963},{"buffer":0,"byteOffset":4200,"byteLength":1536,"target":34962,"byteStride":12},{"buffer":0,"byteOffset":5736,"byteLength":1536,"target":34962,"byteStride":12},{"buffer":0,"byteOffset":7272,"byteLength":1024,"target":34962,"byteStride":8},{"buffer":0,"byteOffset":8296,"byteLength":384,"target":34963},{"buffer":0,"byteOffset":8680,"byteLength":912,"target":34962,"byteStride":12},{"buffer":0,"byteOffset":9592,"byteLength":912,"target":34962,"byteStride":12},{"buffer":0,"byteOffset":10504,"byteLength":608,"target":34962,"byteStride":8},{"buffer":0,"byteOffset":11112,"byteLength":228,"target":34963},{"buffer":0,"byteOffset":11340,"byteLength":912,"target":34962,"byteStride":12},{"buffer":0,"byteOffset":12252,"byteLength":912,"target":34962,"byteStride":12},{"buffer":0,"byteOffset":13164,"byteLength":608,"target":34962,"byteStride":8},{"buffer":0,"byteOffset":13772,"byteLength":228,"target":34963},{"buffer":0,"byteOffset":14000,"byteLength":528,"target":34962,"byteStride":12},{"buffer":0,"byteOffset":14528,"byteLength":528,"target":34962,"byteStride":12},{"buffer":0,"byteOffset":15056,"byteLength":352,"target":34962,"byteStride":8},{"buffer":0,"byteOffset":15408,"byteLength":132,"target":34963},{"buffer":0,"byteOffset":15540,"byteLength":528,"target":34962,"byteStride":12},{"buffer":0,"byteOffset":16068,"byteLength":528,"target":34962,"byteStride":12},{"buffer":0,"byteOffset":16596,"byteLength":352,"target":34962,"byteStride":8},{"buffer":0,"byteOffset":16948,"byteLength":132,"target":34963},{"buffer":0,"byteOffset":17080,"byteLength":12},{"buffer":0,"byteOffset":17092,"byteLength":36},{"buffer":0,"byteOffset":17128,"byteLength":12},{"buffer":0,"byteOffset":17140,"byteLength":36},{"buffer":0,"byteOffset":17176,"byteLength":12},{"buffer":0,"byteOffset":17188,"byteLength":36},{"buffer":0,"byteOffset":17224,"byteLength":12},{"buffer":0,"byteOffset":17236,"byteLength":36},{"buffer":0,"byteOffset":17272,"byteLength":12},{"buffer":0,"byteOffset":17284,"byteLength":36},{"buffer":0,"byteOffset":17320,"byteLength":12},{"buffer":0,"byteOffset":17332,"byteLength":36},{"buffer":0,"byteOffset":17368,"byteLength":12},{"buffer":0,"byteOffset":17380,"byteLength":48},{"buffer":0,"byteOffset":17428,"byteLength":12},{"buffer":0,"byteOffset":17440,"byteLength":36},{"buffer":0,"byteOffset":17476,"byteLength":12},{"buffer":0,"byteOffset":17488,"byteLength":48},{"buffer":0,"byteOffset":17536,"byteLength":12},{"buffer":0,"byteOffset":17548,"byteLength":36},{"buffer":0,"byteOffset":17584,"byteLength":12},{"buffer":0,"byteOffset":17596,"byteLength":48},{"buffer":0,"byteOffset":17644,"byteLength":12},{"buffer":0,"byteOffset":17656,"byteLength":48},{"buffer":0,"byteOffset":17704,"byteLength":12},{"buffer":0,"byteOffset":17716,"byteLength":48},{"buffer":0,"byteOffset":17764,"byteLength":12},{"buffer":0,"byteOffset":17776,"byteLength":36},{"buffer":0,"byteOffset":17812,"byteLength":12},{"buffer":0,"byteOffset":17824,"byteLength":36},{"buffer":0,"byteOffset":17860,"byteLength":12},{"buffer":0,"byteOffset":17872,"byteLength":36},{"buffer":0,"byteOffset":17908,"byteLength":12},{"buffer":0,"byteOffset":17920,"byteLength":36},{"buffer":0,"byteOffset":17956,"byteLength":12},{"buffer":0,"byteOffset":17968,"byteLength":36},{"buffer":0,"byteOffset":18004,"byteLength":12},{"buffer":0,"byteOffset":18016,"byteLength":36},{"buffer":0,"byteOffset":18052,"byteLength":12},{"buffer":0,"byteOffset":18064,"byteLength":36},{"buffer":0,"byteOffset":18100,"byteLength":12},{"buffer":0,"byteOffset":18112,"byteLength":36},{"buffer":0,"byteOffset":18148,"byteLength":12},{"buffer":0,"byteOffset":18160,"byteLength":48},{"buffer":0,"byteOffset":18208,"byteLength":12},{"buffer":0,"byteOffset":18220,"byteLength":36},{"buffer":0,"byteOffset":18256,"byteLength":12},{"buffer":0,"byteOffset":18268,"byteLength":36}],"buffers":[{"byteLength":18304,"uri":"data:application/octet-stream;base64,"}],"accessors":[{"bufferView":0,"componentType":5126,"count":96,"max":[0.375,0.375,0.25],"min":[-0.375,-0.375,-0.25],"type":"VEC3"},{"bufferView":1,"componentType":5126,"count":96,"max":[1,1,1],"min":[-1,-1,-1],"type":"VEC3"},{"bufferView":2,"componentType":5126,"count":96,"max":[0.75,0.062499985098838806],"min":[0.625,0],"type":"VEC2"},{"bufferView":3,"componentType":5123,"count":144,"max":[95],"min":[0],"type":"SCALAR"},{"bufferView":4,"componentType":5126,"count":24,"max":[0.3125,0.3125,0.28125],"min":[-0.3125,-0.3125,-0.28125],"type":"VEC3"},{"bufferView":5,"componentType":5126,"count":24,"max":[1,1,1],"min":[-1,-1,-1],"type":"VEC3"},{"bufferView":6,"componentType":5126,"count":24,"max":[0.75,0.14999999105930328],"min":[0,0.062499985098838806],"type":"VEC2"},{"bufferView":7,"componentType":5123,"count":30,"max":[19],"min":[0],"type":"SCALAR"},{"bufferView":8,"componentType":5123,"count":6,"max":[23],"min":[20],"type":"SCALAR"},{"bufferView":9,"componentType":5126,"count":128,"max":[0.4375,0.16875000298023224,0.09375],"min":[-0.4375,-0.26875001192092896,-0.09375],"type":"VEC3"},{"bufferView":10,"componentType":5126,"count":128,"max":[1,1,1],"min":[-1,-1,-1],"type":"VEC3"},{"bufferView":11,"componentType":5126,"count":128,"max":[0.75,0.1250000149011612],"min":[0.625,0],"type":"VEC2"},{"bufferView":12,"componentType":5123,"count":192,"max":[127],"min":[0],"type":"SCALAR"},{"bufferView":13,"componentType":5126,"count":76,"max":[0.09375,0.3385416567325592,0.03125],"min":[-0.09375,-0.1302083283662796,-0.03125],"type":"VEC3"},{"bufferView":14,"componentType":5126,"count":76,"max":[1,1,1],"min":[-1,-1,-1],"type":"VEC3"},{"bufferView":15,"componentType":5126,"count":76,"max":[0.6875,0.062499985098838806],"min":[0.625,0],"type":"VEC2"},{"bufferView":16,"componentType":5123,"count":114,"max":[75],"min":[0],"type":"SCALAR"},{"bufferView":17,"componentType":5126,"count":76,"max":[0.09375,0.3385416567325592,0.03125],"min":[-0.09375,-0.1302083283662796,-0.03125],"type":"VEC3"},{"bufferView":18,"componentType":5126,"count":76,"max":[1,1,1],"min":[-1,-1,-1],"type":"VEC3"},{"bufferView":19,"componentType":5126,"count":76,"max":[0.75,0.062499985098838806],"min":[0.6875,0],"type":"VEC2"},{"bufferView":20,"componentType":5123,"count":114,"max":[75],"min":[0],"type":"SCALAR"},{"bufferView":21,"componentType":5126,"count":44,"max":[0.09375,0.09375,0.09375],"min":[-0.09375,-0.15625,-0.15625],"type":"VEC3"},{"bufferView":22,"componentType":5126,"count":44,"max":[1,1,1],"min":[-1,-1,-1],"type":"VEC3"},{"bufferView":23,"componentType":5126,"count":44,"max":[0.6875,0.062499985098838806],"min":[0.625,0],"type":"VEC2"},{"bufferView":24,"componentType":5123,"count":66,"max":[43],"min":[0],"type":"SCALAR"},{"bufferView":25,"componentType":5126,"count":44,"max":[0.09375,0.09375,0.09375],"min":[-0.09375,-0.15625,-0.15625],"type":"VEC3"},{"bufferView":26,"componentType":5126,"count":44,"max":[1,1,1],"min":[-1,-1,-1],"type":"VEC3"},{"bufferView":27,"componentType":5126,"count":44,"max":[0.75,0.062499985098838806],"min":[0.6875,0],"type":"VEC2"},{"bufferView":28,"componentType":5123,"count":66,"max":[43],"min":[0],"type":"SCALAR"},{"bufferView":29,"componentType":5126,"count":3,"max":[2],"min":[0],"type":"SCALAR"},{"bufferView":30,"componentType":5126,"count":3,"max":[0,0.518750011920929,0.03125],"min":[0,0.45625001192092896,0.03125],"type":"VEC3"},{"bufferView":31,"componentType":5126,"count":3,"max":[2],"min":[0],"type":"SCALAR"},{"bufferView":32,"componentType":5126,"count":3,"max":[0.40625,0.5625,0.03125],"min":[0.40625,0.5,0.03125],"type":"VEC3"},{"bufferView":33,"componentType":5126,"count":3,"max":[2],"min":[0],"type":"SCALAR"},{"bufferView":34,"componentType":5126,"count":3,"max":[0,0.6875,0.09375],"min":[0,0.625,0.09375],"type":"VEC3"},{"bufferView":35,"componentType":5126,"count":3,"max":[2],"min":[0],"type":"SCALAR"},{"bufferView":36,"componentType":5126,"count":3,"max":[-0.40625,0.5625,0.03125],"min":[-0.40625,0.5,0.03125],"type":"VEC3"},{"bufferView":37,"componentType":5126,"count":3,"max":[0.5],"min":[0],"type":"SCALAR"},{"bufferView":38,"componentType":5126,"count":3,"max":[0,0.6875,0.09375],"min":[0,0.65625,0.09375],"type":"VEC3"},{"bufferView":39,"componentType":5126,"count":3,"max":[0.5],"min":[0],"type":"SCALAR"},{"bufferView":40,"componentType":5126,"count":3,"max":[0,0.518750011920929,0.03125],"min":[0,0.48750001192092896,0.03125],"type":"VEC3"},{"bufferView":41,"componentType":5126,"count":3,"max":[0.5],"min":[0],"type":"SCALAR"},{"bufferView":42,"componentType":5126,"count":3,"max":[0.3826834261417389,0,0,0.9238795042037964],"min":[-0.3826834261417389,0,0,0.9238795042037964],"type":"VEC4"},{"bufferView":43,"componentType":5126,"count":3,"max":[0.5],"min":[0],"type":"SCALAR"},{"bufferView":44,"componentType":5126,"count":3,"max":[0.40625,0.5625,0.03125],"min":[0.40625,0.53125,0.03125],"type":"VEC3"},{"bufferView":45,"componentType":5126,"count":3,"max":[0.5],"min":[0],"type":"SCALAR"},{"bufferView":46,"componentType":5126,"count":3,"max":[0.3420201539993286,0,0,0.9396926164627075],"min":[-0.3826834261417389,0,0,0.9238795042037964],"type":"VEC4"},{"bufferView":47,"componentType":5126,"count":3,"max":[0.5],"min":[0],"type":"SCALAR"},{"bufferView":48,"componentType":5126,"count":3,"max":[-0.40625,0.5625,0.03125],"min":[-0.40625,0.53125,0.03125],"type":"VEC3"},{"bufferView":49,"componentType":5126,"count":3,"max":[0.5],"min":[0],"type":"SCALAR"},{"bufferView":50,"componentType":5126,"count":3,"max":[0.3826834261417389,0,0,0.9238795042037964],"min":[-0.3826834261417389,0,0,0.9238795042037964],"type":"VEC4"},{"bufferView":51,"componentType":5126,"count":3,"max":[0.5],"min":[0],"type":"SCALAR"},{"bufferView":52,"componentType":5126,"count":3,"max":[0.3826834261417389,0,0,0.9238795042037964],"min":[-0.3826834261417389,0,0,0.9238795042037964],"type":"VEC4"},{"bufferView":53,"componentType":5126,"count":3,"max":[0.25],"min":[0],"type":"SCALAR"},{"bufferView":54,"componentType":5126,"count":3,"max":[0,2.354222404570074e-18,-5.392055901393471e-17,1],"min":[-0.04361938685178757,0,-5.397192692997425e-17,0.9990482330322266],"type":"VEC4"},{"bufferView":55,"componentType":5126,"count":3,"max":[0.25],"min":[0],"type":"SCALAR"},{"bufferView":56,"componentType":5126,"count":3,"max":[0,0.6875,0.09375],"min":[0,0.65625,0.09375],"type":"VEC3"},{"bufferView":57,"componentType":5126,"count":3,"max":[0.25],"min":[0],"type":"SCALAR"},{"bufferView":58,"componentType":5126,"count":3,"max":[1,1,1],"min":[1,0.8999999761581421,1],"type":"VEC3"},{"bufferView":59,"componentType":5126,"count":3,"max":[0.25],"min":[0],"type":"SCALAR"},{"bufferView":60,"componentType":5126,"count":3,"max":[0,0.518750011920929,0.03125],"min":[0,0.48750001192092896,0.03125],"type":"VEC3"},{"bufferView":61,"componentType":5126,"count":3,"max":[0.25],"min":[0],"type":"SCALAR"},{"bufferView":62,"componentType":5126,"count":3,"max":[0.40625,0.5625,0.03125],"min":[0.40625,0.53125,0.03125],"type":"VEC3"},{"bufferView":63,"componentType":5126,"count":3,"max":[0.25],"min":[0],"type":"SCALAR"},{"bufferView":64,"componentType":5126,"count":3,"max":[-0.40625,0.5625,0.03125],"min":[-0.40625,0.53125,0.03125],"type":"VEC3"},{"bufferView":65,"componentType":5126,"count":3,"max":[0.25],"min":[0],"type":"SCALAR"},{"bufferView":66,"componentType":5126,"count":3,"max":[0,0.6875,0.09375],"min":[0,0.65625,0.09375],"type":"VEC3"},{"bufferView":67,"componentType":5126,"count":3,"max":[0.25],"min":[0],"type":"SCALAR"},{"bufferView":68,"componentType":5126,"count":3,"max":[1,1,1],"min":[1,0.8999999761581421,1],"type":"VEC3"},{"bufferView":69,"componentType":5126,"count":3,"max":[0.25],"min":[0],"type":"SCALAR"},{"bufferView":70,"componentType":5126,"count":3,"max":[0,0.518750011920929,0.03125],"min":[0,0.48750001192092896,0.03125],"type":"VEC3"},{"bufferView":71,"componentType":5126,"count":3,"max":[0.25],"min":[0],"type":"SCALAR"},{"bufferView":72,"componentType":5126,"count":3,"max":[0.7071067690849304,0,0,0.7933533191680908],"min":[0.6087614297866821,0,0,0.7071067690849304],"type":"VEC4"},{"bufferView":73,"componentType":5126,"count":3,"max":[0.25],"min":[0],"type":"SCALAR"},{"bufferView":74,"componentType":5126,"count":3,"max":[0.40625,0.5625,0.03125],"min":[0.40625,0.53125,0.03125],"type":"VEC3"},{"bufferView":75,"componentType":5126,"count":3,"max":[0.25],"min":[0],"type":"SCALAR"},{"bufferView":76,"componentType":5126,"count":3,"max":[-0.40625,0.5625,0.03125],"min":[-0.40625,0.53125,0.03125],"type":"VEC3"}],"materials":[{"pbrMetallicRoughness":{"metallicFactor":0,"roughnessFactor":1,"baseColorTexture":{"index":0}},"alphaMode":"MASK","alphaCutoff":0.05,"doubleSided":true},{"pbrMetallicRoughness":{"metallicFactor":0,"roughnessFactor":1,"baseColorTexture":{"index":1}},"alphaMode":"MASK","alphaCutoff":0.05,"doubleSided":true}],"textures":[{"sampler":0,"source":0,"name":"hasibot.png"},{"sampler":1,"source":1,"name":"hasibot_face.png"}],"samplers":[{"magFilter":9728,"minFilter":9728,"wrapS":33071,"wrapT":33071},{"magFilter":9728,"minFilter":9728,"wrapS":33071,"wrapT":33071}],"images":[{"mimeType":"image/png","uri":"data:image/png;base64,"},{"mimeType":"image/png","uri":"data:image/png;base64,"}],"meshes":[{"primitives":[{"mode":4,"attributes":{"POSITION":0,"NORMAL":1,"TEXCOORD_0":2},"indices":3,"material":0}]},{"primitives":[{"mode":4,"attributes":{"POSITION":4,"NORMAL":5,"TEXCOORD_0":6},"indices":7,"material":0},{"mode":4,"attributes":{"POSITION":4,"NORMAL":5,"TEXCOORD_0":6},"indices":8,"material":1}]},{"primitives":[{"mode":4,"attributes":{"POSITION":9,"NORMAL":10,"TEXCOORD_0":11},"indices":12,"material":0}]},{"primitives":[{"mode":4,"attributes":{"POSITION":13,"NORMAL":14,"TEXCOORD_0":15},"indices":16,"material":0}]},{"primitives":[{"mode":4,"attributes":{"POSITION":17,"NORMAL":18,"TEXCOORD_0":19},"indices":20,"material":0}]},{"primitives":[{"mode":4,"attributes":{"POSITION":21,"NORMAL":22,"TEXCOORD_0":23},"indices":24,"material":0}]},{"primitives":[{"mode":4,"attributes":{"POSITION":25,"NORMAL":26,"TEXCOORD_0":27},"indices":28,"material":0}]}],"animations":[{"name":"idle","samplers":[{"input":29,"output":30,"interpolation":"LINEAR"},{"input":31,"output":32,"interpolation":"LINEAR"},{"input":33,"output":34,"interpolation":"LINEAR"},{"input":35,"output":36,"interpolation":"LINEAR"}],"channels":[{"sampler":0,"target":{"node":4,"path":"translation"}},{"sampler":1,"target":{"node":6,"path":"translation"}},{"sampler":2,"target":{"node":2,"path":"translation"}},{"sampler":3,"target":{"node":8,"path":"translation"}}]},{"name":"walk","samplers":[{"input":37,"output":38,"interpolation":"LINEAR"},{"input":39,"output":40,"interpolation":"LINEAR"},{"input":41,"output":42,"interpolation":"LINEAR"},{"input":43,"output":44,"interpolation":"LINEAR"},{"input":45,"output":46,"interpolation":"LINEAR"},{"input":47,"output":48,"interpolation":"LINEAR"},{"input":49,"output":50,"interpolation":"LINEAR"},{"input":51,"output":52,"interpolation":"LINEAR"}],"channels":[{"sampler":0,"target":{"node":2,"path":"translation"}},{"sampler":1,"target":{"node":4,"path":"translation"}},{"sampler":2,"target":{"node":6,"path":"rotation"}},{"sampler":3,"target":{"node":6,"path":"translation"}},{"sampler":4,"target":{"node":8,"path":"rotation"}},{"sampler":5,"target":{"node":8,"path":"translation"}},{"sampler":6,"target":{"node":10,"path":"rotation"}},{"sampler":7,"target":{"node":12,"path":"rotation"}}]},{"name":"talk_1","samplers":[{"input":53,"output":54,"interpolation":"LINEAR"},{"input":55,"output":56,"interpolation":"LINEAR"},{"input":57,"output":58,"interpolation":"LINEAR"},{"input":59,"output":60,"interpolation":"LINEAR"},{"input":61,"output":62,"interpolation":"LINEAR"},{"input":63,"output":64,"interpolation":"LINEAR"}],"channels":[{"sampler":0,"target":{"node":2,"path":"rotation"}},{"sampler":1,"target":{"node":2,"path":"translation"}},{"sampler":2,"target":{"node":2,"path":"scale"}},{"sampler":3,"target":{"node":4,"path":"translation"}},{"sampler":4,"target":{"node":6,"path":"translation"}},{"sampler":5,"target":{"node":8,"path":"translation"}}]},{"name":"talk_2","samplers":[{"input":65,"output":66,"interpolation":"LINEAR"},{"input":67,"output":68,"interpolation":"LINEAR"},{"input":69,"output":70,"interpolation":"LINEAR"},{"input":71,"output":72,"interpolation":"LINEAR"},{"input":73,"output":74,"interpolation":"LINEAR"},{"input":75,"output":76,"interpolation":"LINEAR"}],"channels":[{"sampler":0,"target":{"node":2,"path":"translation"}},{"sampler":1,"target":{"node":2,"path":"scale"}},{"sampler":2,"target":{"node":4,"path":"translation"}},{"sampler":3,"target":{"node":6,"path":"rotation"}},{"sampler":4,"target":{"node":6,"path":"translation"}},{"sampler":5,"target":{"node":8,"path":"translation"}}]}]}